<?xml version="1.0" encoding="utf-8"?>
<!-- Generator: Adobe Illustrator 25.2.0, SVG Export Plug-In . SVG Version: 6.00 Build 0)  -->
<svg version="1.1" id="Layer_1" xmlns="http://www.w3.org/2000/svg" xmlns:xlink="http://www.w3.org/1999/xlink" x="0px" y="0px"
	 viewBox="0 0 1237 1240.5" style="enable-background:new 0 0 1237 1240.5;" xml:space="preserve">
<style type="text/css">
	.st0{clip-path:url(#SVGID_2_);}
	.st1{fill:none;stroke:#000000;stroke-width:20.625;stroke-miterlimit:8;}
	.st2{fill:none;stroke:#000000;stroke-width:10.3125;stroke-miterlimit:8;}
</style>
<g>
	<defs>
		<rect id="SVGID_1_" x="-325.8" y="-141.8" width="1897" height="1803"/>
	</defs>
	<clipPath id="SVGID_2_">
		<use xlink:href="#SVGID_1_"  style="overflow:visible;"/>
	</clipPath>
	<g transform="translate(-150 -610)" class="st0">
		<path class="st1" d="M254.7,1229.2c0-283.6,229.9-513.5,513.5-513.5c283.6,0,513.5,229.9,513.5,513.5s-229.9,513.5-513.5,513.5
			C484.6,1742.7,254.7,1512.8,254.7,1229.2z"/>
		<g>
			<g transform="matrix(2 0 0 1.99889 149 610)">
				<g>
					<path d="M286.4,382.7c0,12.1-2.1,23-6.3,32.7c-4.2,9.7-10.2,18-18.1,25c-7.9,6.9-17.6,12.3-29.1,16
						c-11.5,3.7-24.6,5.6-39.1,5.6c-8.8,0-17.1-0.7-24.7-2.1s-14.5-3.1-20.5-5.1c-6-2-10.9-4-14.9-6.1c-3.9-2.1-6.4-3.6-7.4-4.6
						c-1-1-1.8-1.9-2.3-2.9c-0.5-1-1-2.1-1.4-3.5c-0.4-1.4-0.7-3-0.9-5c-0.2-2-0.3-4.4-0.3-7.2c0-4.9,0.5-8.3,1.5-10.2
						c1-1.9,2.4-2.9,4.2-2.9c1.3,0,3.7,1.1,7.4,3.3c3.7,2.2,8.4,4.5,14.2,7c5.8,2.5,12.5,4.9,20.3,7c7.7,2.2,16.3,3.3,25.8,3.3
						c9.2,0,17.3-1.2,24.2-3.5c7-2.3,12.8-5.6,17.5-9.8c4.7-4.2,8.3-9.2,10.7-15c2.4-5.8,3.6-12.1,3.6-18.8c0-7.5-1.5-14.2-4.5-20.2
						c-3-6-7.4-11.1-13.2-15.5c-5.8-4.3-13-7.7-21.4-10c-8.5-2.3-18.1-3.5-28.9-3.5h-25.9c-1.1,0-2.2-0.2-3.3-0.7
						c-1.1-0.5-2-1.3-2.7-2.3c-0.8-1.1-1.4-2.5-1.9-4.3c-0.5-1.8-0.7-4.1-0.7-6.9c0-2.6,0.2-4.7,0.6-6.4c0.4-1.7,1-3.1,1.7-4.1
						c0.7-1,1.6-1.8,2.5-2.2c1-0.5,2-0.7,3.3-0.7h23c9,0,17-1.2,24.1-3.5c7.1-2.3,13.2-5.6,18.1-10c5-4.3,8.8-9.5,11.4-15.6
						s4-12.8,4-20.3c0-5.4-0.9-10.6-2.6-15.6s-4.4-9.3-7.9-12.9c-3.5-3.7-8-6.6-13.5-8.7c-5.5-2.1-11.8-3.2-19-3.2
						c-7.9,0-15.1,1.2-21.7,3.6c-6.6,2.4-12.5,4.9-17.6,7.6c-5.2,2.7-9.4,5.3-12.8,7.6c-3.4,2.4-5.8,3.6-7.1,3.6
						c-1,0-1.8-0.2-2.5-0.5c-0.7-0.3-1.4-1-1.8-2c-0.5-1-0.8-2.4-1-4.3c-0.2-1.8-0.3-4.2-0.3-7.2c0-2,0.1-3.8,0.2-5.4
						c0.1-1.6,0.4-2.9,0.8-4.1c0.4-1.2,0.9-2.2,1.4-3.2c0.5-1,1.5-2.1,2.7-3.4s3.9-3.2,7.8-5.6c3.9-2.4,8.8-4.9,14.6-7.2
						c5.8-2.4,12.4-4.4,20-6c7.5-1.6,15.6-2.4,24.3-2.4c12.2,0,22.9,1.6,32.2,4.7c9.2,3.1,16.9,7.5,23.1,13.2
						c6.2,5.7,10.8,12.5,13.8,20.5c3.1,7.9,4.6,16.7,4.6,26.4c0,8.3-1.1,16-3.3,23.1c-2.2,7.1-5.4,13.4-9.6,18.9
						s-9.4,10.2-15.5,14.1c-6.1,3.9-13.2,6.6-21.2,8v0.4c9.1,1,17.4,3.2,24.9,6.8c7.5,3.6,14,8.1,19.4,13.5
						c5.4,5.4,9.7,11.8,12.7,19C284.8,366.6,286.4,374.4,286.4,382.7z M508.6,325.6c0,20.2-1.6,38.7-4.8,55.4
						c-3.2,16.7-8.5,31.1-15.9,43.1c-7.4,12-17.1,21.3-29,27.9c-11.9,6.6-26.7,9.9-44.2,9.9c-16.6,0-30.5-3-41.8-8.9
						c-11.3-5.9-20.5-14.6-27.4-26.1c-6.9-11.5-11.8-25.6-14.8-42.4c-2.9-16.8-4.4-36-4.4-57.8c0-20.1,1.6-38.5,4.9-55.3
						c3.3-16.8,8.6-31.2,15.9-43.2s17-21.3,28.9-27.9c11.9-6.6,26.6-9.9,44-9.9c16.7,0,30.7,3,42,8.9c11.3,5.9,20.5,14.6,27.4,26.1
						c6.9,11.5,11.8,25.6,14.8,42.4S508.6,303.9,508.6,325.6z M472.7,328.1c0-13.2-0.5-25-1.4-35.4s-2.3-19.7-4.2-27.7
						c-1.8-8-4.2-14.9-7.1-20.7c-2.9-5.8-6.4-10.5-10.5-14.3c-4.1-3.7-8.7-6.5-13.9-8.1c-5.2-1.7-11.1-2.5-17.6-2.5
						c-11.5,0-20.9,2.7-28.1,8.1c-7.2,5.4-12.9,12.9-17,22.4c-4.1,9.5-7,20.6-8.5,33.4c-1.5,12.8-2.2,26.5-2.2,41.2
						c0,19.7,1,36.4,3.1,50.2c2,13.8,5.3,25,9.7,33.7c4.4,8.7,10,15,16.9,18.9c6.9,3.9,15.2,5.9,24.9,5.9c7.6,0,14.3-1.2,20.1-3.7
						c5.8-2.4,10.7-5.9,14.9-10.5c4.1-4.5,7.6-10,10.3-16.4c2.7-6.4,4.9-13.4,6.5-21.2c1.6-7.7,2.7-16.1,3.4-25.2
						C472.4,347.2,472.7,337.8,472.7,328.1z"/>
				</g>
			</g>
		</g>
		<path class="st2" d="M178.2,1228.7c0-323.4,263.9-585.5,589.5-585.5c325.6,0,589.5,262.1,589.5,585.5s-263.9,585.5-589.5,585.5
			C442.1,1814.2,178.2,1552,178.2,1228.7z"/>
	</g>
</g>
</svg>
