<svg id="Layer_1" data-name="Layer 1" xmlns="http://www.w3.org/2000/svg" xmlns:xlink="http://www.w3.org/1999/xlink" viewBox="0 0 1189.31 1181.31"><defs><style>.cls-1,.cls-3,.cls-5{fill:none;}.cls-2{clip-path:url(#clip-path);}.cls-3,.cls-5{stroke:#000;stroke-miterlimit:8;}.cls-3{stroke-width:20.63px;}.cls-4{clip-path:url(#clip-path-2);}.cls-5{stroke-width:10.31px;}</style><clipPath id="clip-path" transform="translate(-23.06 -28.01)"><rect class="cls-1" x="-325.78" y="-141.84" width="1897" height="1803"/></clipPath><clipPath id="clip-path-2" transform="translate(-23.06 -28.01)"><rect class="cls-1" x="208.22" y="347.16" width="840" height="609"/></clipPath></defs><g class="cls-2"><path class="cls-3" d="M104.72,619.16c0-283.6,229.9-513.5,513.5-513.5s513.5,229.9,513.5,513.5-229.9,513.5-513.5,513.5S104.72,902.76,104.72,619.16Z" transform="translate(-23.06 -28.01)"/><g class="cls-4"><path d="M571.74,764.9q0,36.26-12.63,65.36a139.52,139.52,0,0,1-36.24,49.89q-23.62,20.76-58.24,32t-78.18,11.19A270.93,270.93,0,0,1,337,919,317.15,317.15,0,0,1,296,908.86a190.44,190.44,0,0,1-29.72-12.22q-11.82-6.32-14.87-9.16a24.74,24.74,0,0,1-4.68-5.7,32.75,32.75,0,0,1-2.85-6.93,53.82,53.82,0,0,1-1.83-10,142.89,142.89,0,0,1-.62-14.46q0-14.65,2.93-20.36t8.36-5.7q3.75,0,14.82,6.51a265.15,265.15,0,0,0,28.41,14A317.48,317.48,0,0,0,336.51,859q23.19,6.53,51.6,6.52,27.57,0,48.45-6.92T471.66,839A80.38,80.38,0,0,0,493,809.09a98.2,98.2,0,0,0,7.1-37.67q0-22.39-9-40.32a88,88,0,0,0-26.49-31q-17.46-13-42.9-19.95t-57.83-6.92H312.07a15.65,15.65,0,0,1-6.52-1.43,13.54,13.54,0,0,1-5.47-4.68,27.68,27.68,0,0,1-3.79-8.55,53.3,53.3,0,0,1-1.47-13.85A56.55,56.55,0,0,1,296,631.94a22.84,22.84,0,0,1,3.46-8.14,13.44,13.44,0,0,1,11.61-5.91h46q26.88,0,48.25-6.92t36.25-20a87.76,87.76,0,0,0,22.8-31.15q7.95-18.14,7.94-40.52a92.17,92.17,0,0,0-5.29-31.16,71.25,71.25,0,0,0-15.88-25.86q-10.59-11-27.08-17.3T386,438.72a127,127,0,0,0-43.37,7.12,278.59,278.59,0,0,0-35.22,15.27,241.92,241.92,0,0,0-25.66,15.27q-10.19,7.13-14.25,7.13a12.14,12.14,0,0,1-5.09-1,7.78,7.78,0,0,1-3.67-4.07,28,28,0,0,1-2-8.55,135.59,135.59,0,0,1-.62-14.46q0-6.11.41-10.79a33.27,33.27,0,0,1,1.63-8.14,39.55,39.55,0,0,1,2.85-6.32,34.38,34.38,0,0,1,5.5-6.72q3.87-3.85,15.68-11.19a200,200,0,0,1,29.11-14.46,235.79,235.79,0,0,1,39.91-12,230,230,0,0,1,48.67-4.89q36.64,0,64.34,9.36t46.22,26.47a107.52,107.52,0,0,1,27.69,40.93q9.17,23.82,9.16,52.74a158,158,0,0,1-6.51,46.22,115.83,115.83,0,0,1-50.09,66q-18.33,11.61-42.35,16.08v.82a151.45,151.45,0,0,1,49.88,13.64,139.13,139.13,0,0,1,38.89,27.08,118.91,118.91,0,0,1,34.62,84.7Zm444.39-114q0,60.68-9.57,110.77T974.8,847.77q-22.2,36-58,55.79T828.4,923.31q-49.68,0-83.69-17.71t-54.77-52.12q-20.76-34.43-29.52-84.71t-8.76-115.45q0-60.27,9.78-110.56t31.76-86.33q22-36,57.83-55.79t88-19.75q50.09,0,84.09,17.71t54.77,52.13q20.77,34.41,29.53,84.7T1016.13,650.88Zm-71.67,4.89q0-39.51-2.85-70.86a420.61,420.61,0,0,0-8.35-55.38q-5.49-24-14.25-41.34t-21-28.5a75.17,75.17,0,0,0-27.9-16.29q-15.67-5.1-35.22-5.09-34.62,0-56.2,16.29t-34,44.79q-12.42,28.51-16.9,66.79a710.81,710.81,0,0,0-4.47,82.26q0,59,6.1,100.38t19.35,67.39q13.23,26.07,33.8,37.88t49.88,11.81q22.8,0,40.11-7.33a84,84,0,0,0,29.73-21,115.08,115.08,0,0,0,20.57-32.78,228.24,228.24,0,0,0,13-42.35,364.57,364.57,0,0,0,6.72-50.29Q944.46,685.08,944.46,655.77Z" transform="translate(-23.06 -28.01)"/></g><path class="cls-5" d="M28.22,618.66c0-323.36,263.92-585.5,589.5-585.5s589.5,262.14,589.5,585.5-263.93,585.5-589.5,585.5S28.22,942,28.22,618.66Z" transform="translate(-23.06 -28.01)"/></g></svg>