<?xml version="1.0" encoding="utf-8"?>
<!-- Generator: Adobe Illustrator 25.2.0, SVG Export Plug-In . SVG Version: 6.00 Build 0)  -->
<svg version="1.1" id="Layer_1" xmlns="http://www.w3.org/2000/svg" xmlns:xlink="http://www.w3.org/1999/xlink" x="0px" y="0px"
	 viewBox="0 0 200 200" style="enable-background:new 0 0 200 200;" xml:space="preserve">
<path d="M81.1,66.6c-5.5,0.2-10.3,3.4-12.6,8.4l-2.1,4.6c-0.6,1.3-1.1,2.6-1.5,4l-1,3L56.8,87c-2.7,0.1-4.8,2.4-4.8,5v2.1
	c0,0.8,0.7,1.5,1.5,1.5H61c-0.4,1.3-0.6,2.7-0.7,4.1l-0.4,4.8c-0.1,1.7-0.1,3.4,0.1,5.1l0.7,6.1c0.2,1.7,0.6,3.4,1.2,5l1.3,3.4
	c0.2,0.4,0.6,0.7,1,0.7h0.7v13.8c0,0.7,0.6,1.3,1.3,1.3h11.1c0.7,0,1.3-0.6,1.3-1.3v-13.8h42.9v13.8c0,0.7,0.6,1.3,1.3,1.3h11.1
	c0.7,0,1.3-0.6,1.3-1.3v-13.8h0.7c0.4,0,0.8-0.3,1-0.7l1.3-3.4c0.6-1.6,1-3.3,1.2-5l0.7-6.1c0.2-1.7,0.2-3.4,0.1-5.1l-0.4-4.8
	c-0.1-1.4-0.4-2.8-0.7-4.1h7.5c0.8,0,1.5-0.7,1.5-1.5v-2.1c0-2.7-2.1-4.9-4.8-5l-7.1-0.4l-1-3c-0.4-1.4-1-2.7-1.5-4l-2.1-4.6
	c-2.2-5-7.1-8.2-12.6-8.4H81.1z M84.1,72.6h31.7c4.3,0,8.3,2.5,10.1,6.5l5.6,14.1H68.4L74,79C75.8,75.1,79.8,72.6,84.1,72.6
	L84.1,72.6z"/>
<path d="M2.6,158.1h18.1l14.8-41.3H21.5L2.6,158.1z"/>
<path d="M27.8,102.9h12.7l8.7-24.3H38.9L27.8,102.9z"/>
<path d="M44.7,65.8h9.1l8.5-23.8h-6.8L44.7,65.8z"/>
<path d="M197.4,158.1h-18.1l-14.8-41.3h14.1L197.4,158.1z"/>
<path d="M172.2,102.9h-12.7l-8.7-24.3h10.3L172.2,102.9z"/>
<path d="M155.3,65.8h-9.1l-8.5-23.8h6.8L155.3,65.8z"/>
</svg>
