<svg width="17" height="14" viewBox="0 0 17 14" fill="none" xmlns="http://www.w3.org/2000/svg">
<path d="M8.49219 4.28516C8.19141 4.28516 8.03711 4.13086 8.0293 3.82227L7.95312 0.728516C7.94922 0.576172 7.99805 0.451172 8.09961 0.353516C8.20117 0.255859 8.33008 0.207031 8.48633 0.207031C8.64258 0.207031 8.77148 0.257813 8.87305 0.359375C8.97852 0.457031 9.0293 0.582031 9.02539 0.734375L8.94336 3.82227C8.93555 4.13086 8.78516 4.28516 8.49219 4.28516ZM8.49219 6.18945C8.32422 6.18945 8.17578 6.13086 8.04688 6.01367C7.92188 5.89258 7.85938 5.74805 7.85938 5.58008C7.85938 5.41211 7.92188 5.26953 8.04688 5.15234C8.17188 5.03516 8.32031 4.97656 8.49219 4.97656C8.66406 4.97656 8.8125 5.03516 8.9375 5.15234C9.0625 5.26953 9.125 5.41211 9.125 5.58008C9.125 5.75195 9.06055 5.89648 8.93164 6.01367C8.80664 6.13086 8.66016 6.18945 8.49219 6.18945ZM16.4902 6.16602C16.4395 6.19336 16.3887 6.22266 16.3379 6.25391C16.291 6.28125 16.2422 6.31055 16.1914 6.3418L14.2285 7.57812C14.1191 7.64844 14.0059 7.70312 13.8887 7.74219C13.7715 7.77734 13.6328 7.80469 13.4727 7.82422L11.3574 8.08203C10.8457 8.14453 10.4492 8.3125 10.168 8.58594C9.89062 8.85938 9.75195 9.19141 9.75195 9.58203V10.2207C9.75195 10.8418 10.0312 11.1523 10.5898 11.1523H11.3398V12.002H10.5898C10.0117 12.002 9.58594 11.8613 9.3125 11.5801C9.03906 11.2988 8.90234 10.8574 8.90234 10.2559V9.58203C8.90234 9.16406 8.99609 8.79102 9.18359 8.46289C9.375 8.13477 9.64453 7.86523 9.99219 7.6543C10.3438 7.44336 10.7637 7.30859 11.252 7.25L13.5957 6.95703L15.7344 5.60938C15.8633 5.52734 15.9902 5.45312 16.1152 5.38672C16.2441 5.31641 16.3691 5.25 16.4902 5.1875V6.16602ZM16.4902 12.002H14.123V11.1523H16.4902V12.002ZM12.793 13.1504C12.4414 13.1504 12.123 13.0664 11.8379 12.8984C11.5566 12.7305 11.332 12.5039 11.1641 12.2188C11 11.9375 10.918 11.6211 10.918 11.2695C10.918 10.918 11 10.5996 11.1641 10.3145C11.332 10.0293 11.5566 9.80469 11.8379 9.64062C12.123 9.47266 12.4414 9.38867 12.793 9.38867C13.1445 9.38867 13.4629 9.47266 13.748 9.64062C14.0332 9.80469 14.2578 10.0293 14.4219 10.3145C14.5898 10.5996 14.6738 10.918 14.6738 11.2695C14.6738 11.6211 14.5898 11.9375 14.4219 12.2188C14.2578 12.5039 14.0332 12.7305 13.748 12.8984C13.4629 13.0664 13.1445 13.1504 12.793 13.1504ZM12.793 12.3477C13.0977 12.3477 13.3555 12.2422 13.5664 12.0312C13.7773 11.8242 13.8828 11.5703 13.8828 11.2695C13.8828 10.9648 13.7773 10.709 13.5664 10.502C13.3555 10.291 13.0977 10.1855 12.793 10.1855C12.4922 10.1855 12.2363 10.291 12.0254 10.502C11.8184 10.709 11.7148 10.9648 11.7148 11.2695C11.7148 11.5703 11.8184 11.8242 12.0254 12.0312C12.2363 12.2422 12.4922 12.3477 12.793 12.3477ZM3.75195 13.1504C3.40039 13.1504 3.08203 13.0664 2.79688 12.8984C2.51172 12.7305 2.28516 12.5039 2.11719 12.2188C1.94922 11.9375 1.86523 11.6211 1.86523 11.2695C1.86523 10.918 1.94922 10.5996 2.11719 10.3145C2.28516 10.0293 2.51172 9.80469 2.79688 9.64062C3.08203 9.47266 3.40039 9.38867 3.75195 9.38867C4.10352 9.38867 4.41992 9.47266 4.70117 9.64062C4.98633 9.80469 5.21094 10.0293 5.375 10.3145C5.54297 10.5996 5.62695 10.918 5.62695 11.2695C5.62695 11.6211 5.54297 11.9375 5.375 12.2188C5.21094 12.5039 4.98633 12.7305 4.70117 12.8984C4.41992 13.0664 4.10352 13.1504 3.75195 13.1504ZM3.75195 12.3477C4.04883 12.3477 4.30273 12.2422 4.51367 12.0312C4.72461 11.8242 4.83008 11.5703 4.83008 11.2695C4.83008 10.9648 4.72461 10.709 4.51367 10.502C4.30273 10.291 4.04883 10.1855 3.75195 10.1855C3.44727 10.1855 3.18945 10.291 2.97852 10.502C2.76758 10.709 2.66211 10.9648 2.66211 11.2695C2.66211 11.5703 2.76758 11.8242 2.97852 12.0312C3.18945 12.2422 3.44727 12.3477 3.75195 12.3477ZM0.494141 11.1523H2.49219V12.002H0.494141V11.1523ZM5.19336 12.002V11.1523H5.95508C6.50977 11.1523 6.78711 10.8418 6.78711 10.2207V8.76172C6.78711 8.48438 6.71484 8.26172 6.57031 8.09375C6.42969 7.92578 6.20703 7.79492 5.90234 7.70117L5.3457 7.51367C5.18555 7.4668 5.06055 7.42188 4.9707 7.37891C4.88086 7.33203 4.77344 7.25391 4.64844 7.14453C4.20312 6.75391 3.7793 6.43359 3.37695 6.18359C2.97461 5.92969 2.57227 5.74414 2.16992 5.62695C1.76758 5.50586 1.34375 5.44531 0.898438 5.44531H0.494141V4.58984H0.898438C1.53125 4.58984 2.11328 4.68945 2.64453 4.88867C3.17578 5.08398 3.66211 5.33398 4.10352 5.63867C4.54883 5.93945 4.95508 6.24805 5.32227 6.56445L6.16016 6.83398C6.66406 6.99414 7.03516 7.23242 7.27344 7.54883C7.51562 7.86523 7.63672 8.26953 7.63672 8.76172V10.2207C7.63672 10.8379 7.50195 11.2891 7.23242 11.5742C6.96289 11.8594 6.53711 12.002 5.95508 12.002H5.19336Z" fill="black"/>
</svg>
