<svg id="Layer_1" data-name="Layer 1" xmlns="http://www.w3.org/2000/svg" viewBox="0 0 162.82 142.05"><defs><style>.cls-1{fill:none;}.cls-1,.cls-2,.cls-3{stroke:#000;}.cls-1,.cls-2{stroke-width:5px;}.cls-3{stroke-width:6px;}</style></defs><path d="M50,28.71a16,16,0,0,0-14.05,9.38L33.6,43.23a41.31,41.31,0,0,0-1.72,4.45L30.79,51l-8,.41a5.62,5.62,0,0,0-5.32,5.62v2.35a1.67,1.67,0,0,0,1.67,1.67h8.37a23.55,23.55,0,0,0-.82,4.57L26.31,71a31.11,31.11,0,0,0,.07,5.71l.73,6.83a21.61,21.61,0,0,0,1.35,5.53L30,92.89a1.19,1.19,0,0,0,1.12.77h.81V109.1a1.43,1.43,0,0,0,1.44,1.44H45.66a1.44,1.44,0,0,0,1.44-1.44V93.66H78.25A73,73,0,0,1,110.94,86c1.2,0,2.4,0,3.59.09a21.06,21.06,0,0,0,.43-2.5l.73-6.83a31.11,31.11,0,0,0,.07-5.71l-.42-5.35a23.55,23.55,0,0,0-.82-4.57h8.37a1.68,1.68,0,0,0,1.68-1.67V57.06a5.63,5.63,0,0,0-5.33-5.62L111.29,51l-1.1-3.35a41.31,41.31,0,0,0-1.72-4.45l-2.31-5.14a16,16,0,0,0-14-9.38Zm3.37,6.61H88.74A12.4,12.4,0,0,1,100,42.53l6.23,15.71H35.84l6.22-15.71a12.42,12.42,0,0,1,11.27-7.21Z" transform="translate(-17.51 -28.71)"/><circle cx="93.42" cy="130.84" r="11.21"/><path class="cls-1" d="M156,168.26H173v-8.71a62.1,62.1,0,0,0-62.1-62.1h0a62.09,62.09,0,0,0-62.09,62.1h0v8.71h17" transform="translate(-17.51 -28.71)"/><path class="cls-2" d="M54.51,133.63,68.79,140" transform="translate(-17.51 -28.71)"/><path class="cls-2" d="M110.93,97.45v15.64" transform="translate(-17.51 -28.71)"/><path class="cls-3" d="M75.4,108.63l35.68,50.19" transform="translate(-17.51 -28.71)"/><path class="cls-2" d="M167.51,133.42l-14.29,6.36" transform="translate(-17.51 -28.71)"/><path class="cls-2" d="M146.47,108.63l-9.06,12.74" transform="translate(-17.51 -28.71)"/><path d="M167.28,55.31,154.42,77.59l-11.64-6.72,7.67,28.65,28.65-7.68-11.64-6.72,12.86-22.28Z" transform="translate(-17.51 -28.71)"/></svg>